<svg xmlns="http://www.w3.org/2000/svg" viewBox="0 0 180 180">
  <defs>
    <linearGradient id="bg" x1="0%" y1="0%" x2="100%" y2="100%">
      <stop offset="0%" stop-color="#1a1150"/>
      <stop offset="100%" stop-color="#0a0a2e"/>
    </linearGradient>
    <linearGradient id="ball" x1="20%" y1="10%" x2="80%" y2="90%">
      <stop offset="0%" stop-color="#c4b5fd"/>
      <stop offset="50%" stop-color="#8b5cf6"/>
      <stop offset="100%" stop-color="#5b21b6"/>
    </linearGradient>
    <linearGradient id="gold" x1="0%" y1="0%" x2="100%" y2="100%">
      <stop offset="0%" stop-color="#fcd34d"/>
      <stop offset="100%" stop-color="#f59e0b"/>
    </linearGradient>
  </defs>
  <rect width="180" height="180" rx="40" fill="url(#bg)"/>
  <!-- 수정구 -->
  <circle cx="90" cy="76" r="50" fill="url(#ball)"/>
  <!-- 하이라이트 -->
  <ellipse cx="73" cy="58" rx="18" ry="13" fill="white" opacity="0.25" transform="rotate(-20 73 58)"/>
  <!-- 중앙 빛 -->
  <circle cx="90" cy="73" r="14" fill="#fcd34d" opacity="0.6"/>
  <circle cx="90" cy="73" r="7" fill="white" opacity="0.85"/>
  <!-- 별 파티클 -->
  <circle cx="118" cy="48" r="3" fill="#fcd34d" opacity="0.8"/>
  <circle cx="60" cy="45" r="2" fill="#fbbf24" opacity="0.6"/>
  <circle cx="125" cy="70" r="2" fill="#fcd34d" opacity="0.5"/>
  <!-- 골드 받침대 -->
  <path d="M55 127 Q72 115 90 115 Q108 115 125 127 L130 142 Q90 150 50 142 Z" fill="url(#gold)"/>
  <path d="M55 127 Q72 115 90 115 Q108 115 125 127" fill="none" stroke="#d97706" stroke-width="2" opacity="0.4"/>
  <!-- 텍스트 -->
  <text x="90" y="168" text-anchor="middle" font-family="sans-serif" font-weight="700" font-size="14" fill="white" opacity="0.4" letter-spacing="3">FORTUNELENS</text>
</svg>
